# 3ds Max Wavefront OBJ Exporter v0.97b - (c)2007 guruware
# File Created: 07.10.2013 20:07:53

mtllib wing-right.mtl

#
# object BUTT07
#

v  -59.8287 80.1094 -10.9727
v  -35.8711 56.2532 -49.6633
v  -81.1244 73.3511 -135.1725
v  -91.7722 102.7010 -11.6564
v  -123.7156 129.2426 10.0618
v  -1060.7236 483.6344 -1758.4115
v  -1100.6528 507.2184 -1785.6686
v  -1225.7646 605.3419 -1733.6749
v  -200.9122 218.0256 202.2929
v  -145.0112 165.9349 132.2832
v  -147.6732 155.3560 61.5535
v  -278.1089 275.7725 218.5088
v  -363.2914 333.9475 204.9512
v  -83.7863 58.8221 -228.3042
v  -43.8570 20.0022 -287.4548
v  -49.1809 8.4374 -374.5096
v  -570.9238 476.5602 176.5050
v  -775.8943 617.3374 148.3824
v  -38.5331 -20.9125 -498.0257
v  -118.3918 -3.6522 -722.1543
v  -291.4188 64.8755 -1031.2174
v  -972.8789 748.0934 95.6287
v  -419.1926 112.9195 -1273.9730
v  -1231.0886 923.8897 51.4320
v  -523.0089 157.9862 -1437.0089
v  -632.1490 210.6741 -1578.2904
v  -759.9229 278.4684 -1709.0363
v  -858.4150 339.6142 -1759.4152
v  -914.3162 377.5976 -1769.4125
v  -954.2455 408.5174 -1755.0658
v  -1417.4255 765.7201 -1596.9650
v  -1523.9036 863.9732 -1469.0995
v  -1649.0154 973.9470 -1349.9003
v  -1739.5220 1070.2151 -1168.8883
v  -1811.3948 1154.1984 -982.4105
v  -1832.6902 1207.2552 -767.3810
v  -1428.0732 1054.0814 -4.5221
v  -1550.5229 1121.0259 -118.6192
v  -1662.3252 1179.4995 -237.8224
v  -1819.3804 1230.8063 -580.1466
v  -1771.4653 1227.6731 -404.7059
# 41 vertices

vn 0.5736 0.8067 -0.1422
# 1 vertex normals

vt 0.0257 0.8531 0.0000
vt 0.0127 0.8319 0.0000
vt 0.0373 0.7911 0.0000
vt 0.0431 0.8547 0.0000
vt 0.0604 0.8678 0.0000
vt 0.5694 0.0245 0.0000
vt 0.5911 0.0131 0.0000
vt 0.6591 0.0474 0.0000
vt 0.1023 0.9706 0.0000
vt 0.0720 0.9314 0.0000
vt 0.0734 0.8955 0.0000
vt 0.1443 0.9836 0.0000
vt 0.1906 0.9820 0.0000
vt 0.0387 0.7438 0.0000
vt 0.0170 0.7112 0.0000
vt 0.0199 0.6672 0.0000
vt 0.3033 0.9803 0.0000
vt 0.4147 0.9787 0.0000
vt 0.0141 0.6036 0.0000
vt 0.0575 0.4943 0.0000
vt 0.1515 0.3475 0.0000
vt 0.5217 0.9640 0.0000
vt 0.2209 0.2317 0.0000
vt 0.6619 0.9575 0.0000
vt 0.2773 0.1550 0.0000
vt 0.3366 0.0898 0.0000
vt 0.4060 0.0310 0.0000
vt 0.4595 0.0115 0.0000
vt 0.4899 0.0098 0.0000
vt 0.5116 0.0196 0.0000
vt 0.7632 0.1289 0.0000
vt 0.8210 0.2007 0.0000
vt 0.8890 0.2692 0.0000
vt 0.9381 0.3671 0.0000
vt 0.9772 0.4665 0.0000
vt 0.9887 0.5775 0.0000
vt 0.7690 0.9412 0.0000
vt 0.8355 0.8906 0.0000
vt 0.8962 0.8368 0.0000
vt 0.9815 0.6721 0.0000
vt 0.9555 0.7585 0.0000
# 41 texture coords

g BUTT07
usemtl BUTTWIBA
s 1
f 1/1/1 2/2/1 3/3/1 
f 4/4/1 1/1/1 3/3/1 
f 5/5/1 4/4/1 3/3/1 
f 6/6/1 7/7/1 8/8/1 
f 9/9/1 10/10/1 11/11/1 
f 12/12/1 9/9/1 11/11/1 
f 13/13/1 12/12/1 11/11/1 
f 14/14/1 15/15/1 16/16/1 
f 17/17/1 13/13/1 11/11/1 
f 17/17/1 11/11/1 5/5/1 
f 17/17/1 5/5/1 3/3/1 
f 17/17/1 3/3/1 14/14/1 
f 18/18/1 17/17/1 14/14/1 
f 18/18/1 14/14/1 16/16/1 
f 18/18/1 16/16/1 19/19/1 
f 18/18/1 19/19/1 20/20/1 
f 18/18/1 20/20/1 21/21/1 
f 22/22/1 18/18/1 21/21/1 
f 22/22/1 21/21/1 23/23/1 
f 24/24/1 22/22/1 23/23/1 
f 24/24/1 23/23/1 25/25/1 
f 24/24/1 25/25/1 26/26/1 
f 24/24/1 26/26/1 27/27/1 
f 24/24/1 27/27/1 28/28/1 
f 24/24/1 28/28/1 29/29/1 
f 24/24/1 29/29/1 30/30/1 
f 24/24/1 30/30/1 6/6/1 
f 24/24/1 6/6/1 8/8/1 
f 24/24/1 8/8/1 31/31/1 
f 24/24/1 31/31/1 32/32/1 
f 24/24/1 32/32/1 33/33/1 
f 24/24/1 33/33/1 34/34/1 
f 24/24/1 34/34/1 35/35/1 
f 24/24/1 35/35/1 36/36/1 
f 37/37/1 24/24/1 36/36/1 
f 38/38/1 37/37/1 36/36/1 
f 39/39/1 38/38/1 36/36/1 
f 39/39/1 36/36/1 40/40/1 
f 41/41/1 39/39/1 40/40/1 
# 39 faces

#
# object BUTT06
#

v  -91.8199 164.6694 264.3763
v  -56.2205 140.1211 268.7047
v  -50.2872 110.8745 126.7640
v  -88.8534 136.2108 114.9417
v  -216.4180 215.3712 49.4994
v  -160.0522 228.7000 352.3769
v  -397.3818 330.0963 -29.5688
v  -352.8824 408.2070 592.8558
v  -450.7810 360.6299 -71.7271
v  -702.9437 525.0804 -155.8859
v  -539.7795 579.8495 812.6567
v  -1219.1357 881.0309 -218.6494
v  -750.4094 767.8574 1029.5721
v  -952.1396 944.6972 1219.0372
v  -1670.0620 1191.3472 -277.0438
v  -1177.6029 1137.9026 1405.6166
v  -1767.9604 1263.2571 -263.9814
v  -1851.0259 1328.7119 -227.7161
v  -1925.1914 1396.2051 -144.0033
v  -2008.2568 1490.5884 56.3235
v  -2043.8562 1545.9519 226.7562
v  -2147.6880 1682.3257 581.4865
v  -2150.6543 1694.4333 638.1907
v  -1385.2662 1310.0293 1544.4283
v  -1764.9937 1609.6106 1712.2509
v  -2257.4526 1805.8110 839.1985
v  -2278.2192 1837.1106 932.9705
v  -2100.2217 1860.8979 1785.6205
v  -2396.8838 1951.0112 1100.4363
v  -2390.9507 1953.8374 1140.3898
v  -2201.0869 1932.3381 1784.0560
v  -2349.4180 2027.7051 1726.7882
v  -2414.6836 2058.2461 1636.8219
v  -2471.0493 2072.5879 1490.8729
v  -2462.1494 2041.2957 1349.2928
v  -2441.3833 2002.4495 1212.7219
# 36 vertices

vn 0.5736 0.8067 -0.1422
# 1 vertex normals

vt 0.0011 0.1750 0.0000
vt -0.0137 0.1750 0.0000
vt -0.0161 0.1091 0.0000
vt -0.0001 0.1059 0.0000
vt 0.0530 0.0828 0.0000
vt 0.0295 0.2194 0.0000
vt 0.1282 0.0565 0.0000
vt 0.1097 0.3412 0.0000
vt 0.1504 0.0400 0.0000
vt 0.2553 0.0153 0.0000
vt 0.1874 0.4531 0.0000
vt 0.4699 0.0153 0.0000
vt 0.2750 0.5650 0.0000
vt 0.3589 0.6637 0.0000
vt 0.6574 0.0137 0.0000
vt 0.4526 0.7625 0.0000
vt 0.6981 0.0252 0.0000
vt 0.7327 0.0466 0.0000
vt 0.7635 0.0894 0.0000
vt 0.7980 0.1865 0.0000
vt 0.8128 0.2671 0.0000
vt 0.8560 0.4366 0.0000
vt 0.8573 0.4630 0.0000
vt 0.5390 0.8382 0.0000
vt 0.6969 0.9369 0.0000
vt 0.9017 0.5617 0.0000
vt 0.9103 0.6061 0.0000
vt 0.8363 0.9896 0.0000
vt 0.9596 0.6901 0.0000
vt 0.9572 0.7082 0.0000
vt 0.8782 0.9945 0.0000
vt 0.9399 0.9764 0.0000
vt 0.9670 0.9386 0.0000
vt 0.9905 0.8744 0.0000
vt 0.9868 0.8086 0.0000
vt 0.9781 0.7444 0.0000
# 36 texture coords

g BUTT06
usemtl BUTTWIFR
s 1
f 42/42/2 43/43/2 44/44/2 
f 42/42/2 44/44/2 45/45/2 
f 42/42/2 45/45/2 46/46/2 
f 47/47/2 42/42/2 46/46/2 
f 47/47/2 46/46/2 48/48/2 
f 49/49/2 47/47/2 48/48/2 
f 49/49/2 48/48/2 50/50/2 
f 49/49/2 50/50/2 51/51/2 
f 52/52/2 49/49/2 51/51/2 
f 52/52/2 51/51/2 53/53/2 
f 54/54/2 52/52/2 53/53/2 
f 55/55/2 54/54/2 53/53/2 
f 55/55/2 53/53/2 56/56/2 
f 57/57/2 55/55/2 56/56/2 
f 57/57/2 56/56/2 58/58/2 
f 57/57/2 58/58/2 59/59/2 
f 57/57/2 59/59/2 60/60/2 
f 57/57/2 60/60/2 61/61/2 
f 57/57/2 61/61/2 62/62/2 
f 57/57/2 62/62/2 63/63/2 
f 57/57/2 63/63/2 64/64/2 
f 65/65/2 57/57/2 64/64/2 
f 66/66/2 65/65/2 64/64/2 
f 66/66/2 64/64/2 67/67/2 
f 66/66/2 67/67/2 68/68/2 
f 69/69/2 66/66/2 68/68/2 
f 69/69/2 68/68/2 70/70/2 
f 69/69/2 70/70/2 71/71/2 
f 72/72/2 69/69/2 71/71/2 
f 73/73/2 72/72/2 71/71/2 
f 74/74/2 73/73/2 71/71/2 
f 75/75/2 74/74/2 71/71/2 
f 76/76/2 75/75/2 71/71/2 
f 77/77/2 76/76/2 71/71/2 
# 34 faces

