# 3ds Max Wavefront OBJ Exporter v0.97b - (c)2007 guruware
# File Created: 07.10.2013 20:08:21

mtllib wing-left.mtl

#
# object BUTT08
#

v  35.9888 55.6113 -49.5500
v  59.9464 79.4675 -10.8594
v  81.2420 72.7092 -135.0592
v  91.8898 102.0591 -11.5432
v  123.8333 128.6006 10.1751
v  1100.7705 506.5766 -1785.5555
v  1060.8412 482.9926 -1758.2986
v  1225.8823 604.7001 -1733.5620
v  145.1289 165.2930 132.3965
v  201.0300 217.3837 202.4062
v  147.7908 154.7141 61.6668
v  278.2266 275.1306 218.6220
v  363.4092 333.3056 205.0645
v  43.9746 19.3603 -287.3415
v  83.9039 58.1802 -228.1909
v  49.2986 7.7955 -374.3963
v  571.0416 475.9184 176.6183
v  776.0121 616.6956 148.4956
v  38.6507 -21.5544 -497.9124
v  118.5094 -4.2941 -722.0410
v  291.5364 64.2336 -1031.1041
v  972.9968 747.4515 95.7418
v  419.3102 112.2776 -1273.8599
v  1231.2064 923.2479 51.5451
v  523.1263 157.3443 -1436.8959
v  632.2665 210.0322 -1578.1772
v  760.0403 277.8266 -1708.9232
v  858.5327 338.9724 -1759.3021
v  914.4337 376.9557 -1769.2994
v  954.3630 407.8756 -1754.9528
v  1417.5431 765.0784 -1596.8522
v  1524.0212 863.3315 -1468.9867
v  1649.1332 973.3053 -1349.7874
v  1739.6396 1069.5735 -1168.7754
v  1811.5125 1153.5568 -982.2975
v  1832.8080 1206.6136 -767.2681
v  1428.1910 1053.4397 -4.4091
v  1550.6409 1120.3842 -118.5062
v  1662.4430 1178.8579 -237.7094
v  1819.4983 1230.1647 -580.0337
v  1771.5831 1227.0315 -404.5930
# 41 vertices

vn -0.5736 0.8067 -0.1422
# 1 vertex normals

vt 0.0127 0.8319 0.0000
vt 0.0257 0.8531 0.0000
vt 0.0373 0.7911 0.0000
vt 0.0431 0.8547 0.0000
vt 0.0604 0.8678 0.0000
vt 0.5911 0.0131 0.0000
vt 0.5694 0.0245 0.0000
vt 0.6591 0.0474 0.0000
vt 0.0720 0.9314 0.0000
vt 0.1023 0.9706 0.0000
vt 0.0734 0.8955 0.0000
vt 0.1443 0.9836 0.0000
vt 0.1906 0.9820 0.0000
vt 0.0170 0.7112 0.0000
vt 0.0387 0.7438 0.0000
vt 0.0199 0.6672 0.0000
vt 0.3033 0.9803 0.0000
vt 0.4147 0.9787 0.0000
vt 0.0141 0.6036 0.0000
vt 0.0575 0.4943 0.0000
vt 0.1515 0.3475 0.0000
vt 0.5217 0.9640 0.0000
vt 0.2209 0.2317 0.0000
vt 0.6619 0.9575 0.0000
vt 0.2773 0.1550 0.0000
vt 0.3366 0.0898 0.0000
vt 0.4060 0.0310 0.0000
vt 0.4595 0.0115 0.0000
vt 0.4899 0.0098 0.0000
vt 0.5116 0.0196 0.0000
vt 0.7632 0.1289 0.0000
vt 0.8210 0.2007 0.0000
vt 0.8890 0.2692 0.0000
vt 0.9381 0.3671 0.0000
vt 0.9772 0.4665 0.0000
vt 0.9887 0.5775 0.0000
vt 0.7690 0.9412 0.0000
vt 0.8355 0.8906 0.0000
vt 0.8962 0.8368 0.0000
vt 0.9815 0.6721 0.0000
vt 0.9555 0.7585 0.0000
# 41 texture coords

g BUTT08
usemtl BUTTWIBA
s 1
f 1/1/1 2/2/1 3/3/1 
f 2/2/1 4/4/1 3/3/1 
f 4/4/1 5/5/1 3/3/1 
f 6/6/1 7/7/1 8/8/1 
f 9/9/1 10/10/1 11/11/1 
f 10/10/1 12/12/1 11/11/1 
f 12/12/1 13/13/1 11/11/1 
f 14/14/1 15/15/1 16/16/1 
f 13/13/1 17/17/1 11/11/1 
f 11/11/1 17/17/1 5/5/1 
f 5/5/1 17/17/1 3/3/1 
f 3/3/1 17/17/1 15/15/1 
f 17/17/1 18/18/1 15/15/1 
f 15/15/1 18/18/1 16/16/1 
f 16/16/1 18/18/1 19/19/1 
f 19/19/1 18/18/1 20/20/1 
f 20/20/1 18/18/1 21/21/1 
f 18/18/1 22/22/1 21/21/1 
f 21/21/1 22/22/1 23/23/1 
f 22/22/1 24/24/1 23/23/1 
f 23/23/1 24/24/1 25/25/1 
f 25/25/1 24/24/1 26/26/1 
f 26/26/1 24/24/1 27/27/1 
f 27/27/1 24/24/1 28/28/1 
f 28/28/1 24/24/1 29/29/1 
f 29/29/1 24/24/1 30/30/1 
f 30/30/1 24/24/1 7/7/1 
f 7/7/1 24/24/1 8/8/1 
f 8/8/1 24/24/1 31/31/1 
f 31/31/1 24/24/1 32/32/1 
f 32/32/1 24/24/1 33/33/1 
f 33/33/1 24/24/1 34/34/1 
f 34/34/1 24/24/1 35/35/1 
f 35/35/1 24/24/1 36/36/1 
f 24/24/1 37/37/1 36/36/1 
f 37/37/1 38/38/1 36/36/1 
f 38/38/1 39/39/1 36/36/1 
f 36/36/1 39/39/1 40/40/1 
f 39/39/1 41/41/1 40/40/1 
# 39 faces

#
# object BUTT09
#

v  56.2204 139.8460 268.7536
v  91.8198 164.3943 264.4251
v  50.2871 110.5994 126.8128
v  88.8532 135.9357 114.9905
v  216.4178 215.0960 49.5482
v  160.0521 228.4249 352.4257
v  397.3816 329.8211 -29.5201
v  352.8824 407.9319 592.9045
v  450.7808 360.3548 -71.6784
v  702.9434 524.8053 -155.8372
v  539.7795 579.5743 812.7056
v  1219.1354 880.7557 -218.6008
v  750.4095 767.5823 1029.6208
v  952.1398 944.4221 1219.0857
v  1670.0616 1191.0719 -276.9953
v  1177.6029 1137.6274 1405.6650
v  1767.9602 1262.9818 -263.9329
v  1851.0255 1328.4366 -227.6677
v  1925.1910 1395.9298 -143.9549
v  2008.2563 1490.3131 56.3719
v  2043.8560 1545.6765 226.8046
v  2147.6877 1682.0504 581.5349
v  2150.6543 1694.1581 638.2390
v  1385.2664 1309.7543 1544.4768
v  1764.9938 1609.3356 1712.2993
v  2257.4526 1805.5358 839.2467
v  2278.2190 1836.8353 933.0188
v  2100.2217 1860.6228 1785.6687
v  2396.8838 1950.7360 1100.4846
v  2390.9504 1953.5621 1140.4381
v  2201.0869 1932.0630 1784.1042
v  2349.4177 2027.4298 1726.8364
v  2414.6836 2057.9709 1636.8701
v  2471.0493 2072.3127 1490.9211
v  2462.1494 2041.0204 1349.3411
v  2441.3831 2002.1743 1212.7703
# 36 vertices

vn -0.5736 0.8067 -0.1422
# 1 vertex normals

vt -0.0137 0.1750 0.0000
vt 0.0011 0.1750 0.0000
vt -0.0161 0.1091 0.0000
vt -0.0001 0.1059 0.0000
vt 0.0530 0.0828 0.0000
vt 0.0295 0.2194 0.0000
vt 0.1282 0.0565 0.0000
vt 0.1097 0.3412 0.0000
vt 0.1504 0.0400 0.0000
vt 0.2553 0.0153 0.0000
vt 0.1874 0.4531 0.0000
vt 0.4699 0.0153 0.0000
vt 0.2750 0.5650 0.0000
vt 0.3589 0.6637 0.0000
vt 0.6574 0.0137 0.0000
vt 0.4526 0.7625 0.0000
vt 0.6981 0.0252 0.0000
vt 0.7327 0.0466 0.0000
vt 0.7635 0.0894 0.0000
vt 0.7980 0.1865 0.0000
vt 0.8128 0.2671 0.0000
vt 0.8560 0.4366 0.0000
vt 0.8573 0.4630 0.0000
vt 0.5390 0.8382 0.0000
vt 0.6969 0.9369 0.0000
vt 0.9017 0.5617 0.0000
vt 0.9103 0.6061 0.0000
vt 0.8363 0.9896 0.0000
vt 0.9596 0.6901 0.0000
vt 0.9572 0.7082 0.0000
vt 0.8782 0.9945 0.0000
vt 0.9399 0.9764 0.0000
vt 0.9670 0.9386 0.0000
vt 0.9905 0.8744 0.0000
vt 0.9868 0.8086 0.0000
vt 0.9781 0.7444 0.0000
# 36 texture coords

g BUTT09
usemtl BUTTWIFR
s 1
f 42/42/2 43/43/2 44/44/2 
f 44/44/2 43/43/2 45/45/2 
f 45/45/2 43/43/2 46/46/2 
f 43/43/2 47/47/2 46/46/2 
f 46/46/2 47/47/2 48/48/2 
f 47/47/2 49/49/2 48/48/2 
f 48/48/2 49/49/2 50/50/2 
f 50/50/2 49/49/2 51/51/2 
f 49/49/2 52/52/2 51/51/2 
f 51/51/2 52/52/2 53/53/2 
f 52/52/2 54/54/2 53/53/2 
f 54/54/2 55/55/2 53/53/2 
f 53/53/2 55/55/2 56/56/2 
f 55/55/2 57/57/2 56/56/2 
f 56/56/2 57/57/2 58/58/2 
f 58/58/2 57/57/2 59/59/2 
f 59/59/2 57/57/2 60/60/2 
f 60/60/2 57/57/2 61/61/2 
f 61/61/2 57/57/2 62/62/2 
f 62/62/2 57/57/2 63/63/2 
f 63/63/2 57/57/2 64/64/2 
f 57/57/2 65/65/2 64/64/2 
f 65/65/2 66/66/2 64/64/2 
f 64/64/2 66/66/2 67/67/2 
f 67/67/2 66/66/2 68/68/2 
f 66/66/2 69/69/2 68/68/2 
f 68/68/2 69/69/2 70/70/2 
f 70/70/2 69/69/2 71/71/2 
f 69/69/2 72/72/2 71/71/2 
f 72/72/2 73/73/2 71/71/2 
f 73/73/2 74/74/2 71/71/2 
f 74/74/2 75/75/2 71/71/2 
f 75/75/2 76/76/2 71/71/2 
f 76/76/2 77/77/2 71/71/2 
# 34 faces

